<?xml version="1.0" encoding="UTF-8"?>
<svg id="Calque_1" data-name="Calque 1" xmlns="http://www.w3.org/2000/svg" viewBox="0 0 1509.47 214">
  <defs>
    <style>
      .cls-1 {
        fill: #ef83b3;
      }

      .cls-2 {
        fill: #e62d38;
      }
    </style>
  </defs>
  <g>
    <path class="cls-2" d="M98.65,114.47c-6.1-6.15-14.77-9.72-24.81-9.72-20.09,0-34.65,14.67-34.65,34.89s14.57,34.89,34.65,34.89c10.04,0,18.71-3.57,24.81-9.91l27.57,27.36c-13.39,13.48-31.9,22.01-52.38,22.01C33.08,214,0,180.69,0,139.65s33.08-74.35,73.84-74.35c20.28,0,38.59,8.13,51.98,21.61l-27.17,27.56Z"/>
    <path class="cls-2" d="M221.98,65.31c40.76,0,73.84,33.51,73.84,74.55s-33.08,74.15-73.84,74.15-73.65-33.11-73.65-74.15,32.88-74.55,73.65-74.55ZM221.98,104.16c-19.3,0-35.05,15.86-35.05,35.49s15.75,35.49,35.05,35.49,35.25-16.06,35.25-35.49-15.75-35.49-35.25-35.49Z"/>
    <path class="cls-2" d="M406.67,120.42l60.06-55.12h17.53v148.7h-38.99v-76.33l-38.59,35.49-38.79-35.29v76.13h-38.99V65.31h17.53l60.25,55.12Z"/>
    <path class="cls-2" d="M530.28,65.31h62.22c29.93,0,54.35,24.58,54.35,54.72s-24.22,54.52-53.56,54.52h-24.22v39.45h-38.79V65.31ZM568.82,140.84h19.22c11.82,0,21.27-9.32,21.27-21.21s-9.45-21.41-21.27-21.41h-19.22v42.63Z"/>
    <path class="cls-2" d="M680.42,65.31h38.79v148.7h-38.79V65.31Z"/>
    <path class="cls-2" d="M873.77,214l68.92-148.7h17.53l69.51,148.7h-38.79l-9.06-19.43h-60.45l-8.86,19.43h-38.79ZM936.58,161.66h30.13l-14.96-32.71-15.16,32.71Z"/>
    <path class="cls-2" d="M1036.24,65.31h116.37v38.66h-39.19v110.03h-38.79v-110.03h-38.4v-38.66Z"/>
    <path class="cls-2" d="M1191.29,65.31h38.79v148.7h-38.79V65.31Z"/>
    <path class="cls-2" d="M1346.39,65.31c40.76,0,73.84,33.51,73.84,74.55s-33.08,74.15-73.84,74.15-73.64-33.11-73.64-74.15,32.88-74.55,73.64-74.55ZM1346.39,104.16c-19.3,0-35.05,15.86-35.05,35.49s15.75,35.49,35.05,35.49,35.25-16.06,35.25-35.49-15.75-35.49-35.25-35.49Z"/>
    <polygon class="cls-2" points="804.5 174.75 804.5 65.31 765.71 65.31 765.71 214 836.88 214 855.57 174.75 804.5 174.75"/>
  </g>
  <g>
    <polygon class="cls-2" points="1509.47 65.25 1509.46 65.26 1509.47 65.26 1509.47 65.25"/>
    <polygon class="cls-2" points="1444.21 0 1444.21 65.26 1509.46 65.26 1509.47 65.25 1509.47 0 1444.21 0"/>
  </g>
  <polygon class="cls-1" points="1471.55 65.26 1509.46 65.26 1471.55 103.16 1471.55 65.26"/>
</svg>